<svg xmlns="http://www.w3.org/2000/svg" width="256" height="256" viewBox="0 0 100 100"><rect width="100" height="100" rx="20" fill="#292a2d"></rect><path fill="#fafafb" d="M43.93 36.41L43.93 36.41Q43.93 40.28 42.08 43.56Q40.24 46.85 35.92 48.65L35.92 48.65Q41.05 50.36 43.57 54.00Q46.09 57.65 46.09 62.24L46.09 62.24Q46.09 70.43 40.19 74.39Q34.30 78.35 23.41 78.35L23.41 78.35Q19.63 78.35 16.07 78.03Q12.52 77.72 9.28 76.82L9.28 76.82Q5.50 75.74 5.50 72.68L5.50 72.68L5.50 26.60Q5.50 23.99 8.47 23.18L8.47 23.18Q11.53 22.28 14.95 21.97Q18.37 21.65 22.42 21.65L22.42 21.65Q32.59 21.65 38.26 25.25Q43.93 28.85 43.93 36.41ZM24.94 51.89L12.70 51.89L12.70 71.33Q14.86 71.78 17.69 72.05Q20.53 72.32 23.41 72.32L23.41 72.32Q30.88 72.32 34.75 69.84Q38.62 67.37 38.62 62.06L38.62 62.06Q38.62 57.38 35.15 54.64Q31.69 51.89 24.94 51.89L24.94 51.89ZM12.70 28.49L12.70 45.95L24.94 45.95Q30.61 45.95 33.53 43.43Q36.46 40.91 36.46 36.59L36.46 36.59Q36.46 27.68 22.42 27.68L22.42 27.68Q19.27 27.68 16.97 27.91Q14.68 28.13 12.70 28.49L12.70 28.49ZM63.37 77.36L63.37 77.36Q61.57 77.36 60.48 76.28Q59.41 75.20 59.41 73.40L59.41 73.40L59.41 26.60Q59.41 24.80 60.48 23.72Q61.57 22.64 63.37 22.64L63.37 22.64L93.25 22.64Q93.52 23.09 93.78 23.86Q94.06 24.62 94.06 25.52L94.06 25.52Q94.06 27.05 93.34 27.95Q92.62 28.85 91.27 28.85L91.27 28.85L66.70 28.85L66.70 46.22L90.45 46.22Q90.72 46.67 91.00 47.44Q91.27 48.20 91.27 49.10L91.27 49.10Q91.27 50.63 90.55 51.48Q89.83 52.34 88.47 52.34L88.47 52.34L66.70 52.34L66.70 71.24L93.69 71.24Q93.97 71.69 94.23 72.41Q94.50 73.13 94.50 74.12L94.50 74.12Q94.50 75.65 93.78 76.50Q93.06 77.36 91.72 77.36L91.72 77.36L63.37 77.36Z"></path></svg>